<svg width="188" height="62" viewBox="0 0 188 62" fill="none" xmlns="http://www.w3.org/2000/svg">
<path d="M0.947778 5.92237L23.4363 5.05093L22.4466 10.7076L15.0295 10.995L10.9491 34.6328L3.11339 34.9364L7.19372 11.2986L0 11.5775L0.947778 5.92237ZM37.3078 11.9347L35.876 18.2653C35.1709 18.1039 34.5513 17.9812 34.0102 17.9043C33.4624 17.8346 32.9929 17.8039 32.6023 17.8191C31.0045 17.881 29.7747 18.4248 28.9133 19.4575C28.0588 20.49 27.3996 22.2344 26.9498 24.6907L25.3079 34.0763L17.7583 34.3688L21.317 12.5961L28.1479 12.3314L27.505 16.2976C28.5329 14.6925 29.5913 13.5124 30.6879 12.7781C31.7773 12.0371 33.0266 11.6393 34.4501 11.5841C34.8827 11.5674 35.3375 11.5847 35.8011 11.6435C36.2715 11.7023 36.7715 11.8016 37.3078 11.9347ZM50.9309 23.2303C50.6577 23.213 50.3778 23.2029 50.0842 23.2003C49.7906 23.1976 49.3578 23.2074 48.7856 23.2296C46.797 23.3067 45.2939 23.6514 44.2763 24.2568C43.2585 24.8623 42.7674 25.713 42.8098 26.8085C42.8377 27.5271 43.1187 28.1102 43.6454 28.537C44.1723 28.9707 44.8438 29.1683 45.6602 29.1367C47.0348 29.0835 48.208 28.5209 49.1865 27.4418C50.1578 26.3629 50.7393 24.9567 50.9309 23.2303ZM58.1838 21.2302L57.1719 27.3979C56.9485 28.6644 56.7859 29.6979 56.6914 30.5052C56.5899 31.3127 56.5297 32.1047 56.5034 32.8674L50.2725 33.1089L50.5576 29.8274C49.7746 31.0807 48.7639 32.0493 47.5393 32.7256C46.3079 33.4092 44.8758 33.7792 43.2431 33.8425C41.0591 33.9272 39.299 33.4084 37.9418 32.2869C36.5916 31.1653 35.8757 29.6417 35.8008 27.709C35.7053 25.2459 36.7404 23.2841 38.9059 21.8235C41.0716 20.363 44.1707 19.551 48.1828 19.3956C48.6642 19.3769 49.1881 19.3707 49.7616 19.3834C50.3351 19.3961 50.972 19.4203 51.6654 19.4633C51.6761 19.379 51.6865 19.2877 51.6897 19.1899C51.6927 19.0849 51.6872 18.9453 51.6802 18.764C51.6374 17.6615 51.2492 16.838 50.5225 16.3001C49.789 15.7625 48.7522 15.5162 47.4056 15.5683C46.1496 15.617 44.9476 15.7963 43.786 16.1139C42.6243 16.4315 41.5098 16.887 40.4424 17.4735L41.1272 12.4224C42.2971 11.9579 43.4639 11.5912 44.635 11.3362C45.8061 11.0812 47.0022 10.93 48.2302 10.8824C51.3701 10.7608 53.8497 11.2727 55.6623 12.4252C57.4749 13.5779 58.4191 15.2184 58.5018 17.3535C58.5207 17.842 58.501 18.4158 58.4426 19.0749C58.3914 19.7337 58.3003 20.45 58.1838 21.2302ZM80.9505 11.1517L79.4355 16.4165C78.6186 16.0779 77.8194 15.8294 77.0446 15.6706C76.2628 15.5122 75.5054 15.4439 74.7728 15.4722C72.7842 15.5493 71.2016 16.1836 70.0245 17.3682C68.8476 18.5528 68.2985 20.0696 68.3704 21.9256C68.4331 23.5444 68.9855 24.8158 70.0197 25.719C71.0613 26.6291 72.4333 27.0511 74.1358 26.9851C74.8126 26.9589 75.5002 26.8483 76.1987 26.6606C76.8969 26.4658 77.6198 26.1862 78.3671 25.8148L77.7085 31.5425C76.5759 31.887 75.5031 32.1521 74.4967 32.3308C73.4837 32.5169 72.5164 32.6242 71.5885 32.6602C68.33 32.7865 65.7061 31.9797 63.7098 30.2332C61.7064 28.487 60.6495 26.0961 60.5322 23.0679C60.387 19.321 61.5186 16.2443 63.9206 13.8523C66.3226 11.4601 69.5783 10.1809 73.6811 10.022C74.9091 9.97438 76.1278 10.046 77.3299 10.2299C78.5389 10.4137 79.7459 10.7233 80.9505 11.1517ZM85.7486 0.288253L93.1866 0L89.9122 19.0084L97.0024 9.74708L105.466 9.41909L96.9857 19.7755L102.867 31.0708L94.7104 31.3868L89.6565 20.3461L87.7608 31.6561L80.3018 31.9452L85.7486 0.288253Z" fill="white"/>
<path d="M114.338 14.4791L113.028 22.3284L115.072 22.2492C116.935 22.177 118.372 21.737 119.374 20.9225C120.384 20.1147 120.859 19.027 120.807 17.6664C120.763 16.55 120.34 15.7139 119.542 15.1579C118.745 14.6017 117.61 14.3522 116.138 14.4093L114.338 14.4791ZM107.534 9.50167L116.117 9.16916C120.212 9.01045 123.244 9.52891 125.227 10.7308C127.209 11.9328 128.249 13.8771 128.353 16.5774C128.482 19.9057 127.474 22.5652 125.322 24.5633C123.177 26.5541 120.151 27.6287 116.251 27.7799C115.77 27.7986 115.19 27.8141 114.499 27.8199C113.807 27.8257 113.01 27.8217 112.108 27.8146L110.216 38.4958L102.506 38.7945L107.534 9.50167ZM133.706 6.13954L141.151 5.85107L135.725 37.5072L128.259 37.7965L133.706 6.13954ZM143.975 15.6366L151.511 15.3446L149.662 26.2406C149.592 26.6137 149.551 26.9786 149.523 27.3362C149.495 27.7006 149.487 28.0503 149.5 28.3713C149.541 29.4248 149.816 30.2108 150.326 30.7431C150.842 31.2751 151.551 31.5272 152.465 31.4918C153.867 31.4374 155.044 30.7838 155.995 29.5311C156.939 28.2856 157.618 26.5054 158.017 24.1977L159.584 15.0318L167.126 14.7394L163.362 36.4362L156.615 36.6977L157.311 33.023C156.144 34.4588 154.886 35.5558 153.546 36.3065C152.199 37.0645 150.782 37.4689 149.282 37.5269C147.035 37.614 145.272 37.0255 144.001 35.768C142.722 34.5107 142.036 32.6855 141.944 30.3063C141.915 29.5666 141.951 28.6917 142.044 27.6678C142.145 26.6507 142.297 25.5198 142.507 24.2887L143.975 15.6366ZM187.211 14.625L185.756 19.4402C184.377 19.0254 183.255 18.7475 182.397 18.606C181.539 18.4645 180.747 18.4045 180.029 18.4323C178.975 18.4731 178.165 18.6791 177.586 19.058C177.007 19.4369 176.725 19.9229 176.748 20.523C176.778 21.2975 177.706 21.9813 179.532 22.5674C180.282 22.8109 180.87 23.0118 181.302 23.1696C182.848 23.7526 183.993 24.4489 184.724 25.2662C185.461 26.0833 185.85 27.1023 185.897 28.3164C185.988 30.6678 185.141 32.6014 183.347 34.1035C181.561 35.6052 179.118 36.4127 176.02 36.5327C174.499 36.5916 173.015 36.5304 171.583 36.3553C170.151 36.1802 168.748 35.885 167.384 35.4768L168.739 30.2252C169.763 30.6747 170.782 31.0055 171.789 31.2111C172.789 31.417 173.806 31.5033 174.831 31.4636C176.045 31.4165 176.967 31.2131 177.603 30.8531C178.239 30.493 178.542 30.0131 178.518 29.3991C178.483 28.4989 177.609 27.7572 175.902 27.1664C175.626 27.0793 175.414 27.0176 175.279 26.967C173.146 26.1901 171.688 25.373 170.901 24.5161C170.12 23.6589 169.698 22.5153 169.643 21.0989C169.562 19.0125 170.431 17.2738 172.243 15.8898C174.062 14.4986 176.507 13.747 179.57 13.6283C180.728 13.5835 181.939 13.6413 183.204 13.8089C184.468 13.9696 185.799 14.2395 187.211 14.625Z" fill="white"/>
<path fill-rule="evenodd" clip-rule="evenodd" d="M23.114 55.4804C23.3805 55.4282 54.726 38.8497 79.4654 48.8082C81.2341 49.5202 84.6835 51.0919 82.74 52.143L64.5162 62C64.5162 62 50.2615 52.5975 23.114 55.4804Z" fill="white"/>
<path fill-rule="evenodd" clip-rule="evenodd" d="M50.1577 43.2387C50.4242 43.1865 81.7697 26.608 106.509 36.5665C108.278 37.2785 111.727 38.8502 109.784 39.9014L91.5598 49.7583C91.5598 49.7583 77.3051 40.3558 50.1577 43.2387Z" fill="white"/>
</svg>
