<svg width="128" height="43" viewBox="0 0 128 43" fill="none" xmlns="http://www.w3.org/2000/svg">
<path d="M1.14295 4.01761L16.3987 3.42645L15.7273 7.26378L10.6957 7.45874L7.92763 23.4941L2.61206 23.7001L5.38007 7.66473L0.5 7.85392L1.14295 4.01761ZM25.8088 8.09621L24.8375 12.3908C24.3592 12.2813 23.9388 12.198 23.5718 12.1459C23.2002 12.0986 22.8817 12.0778 22.6167 12.0881C21.5328 12.1301 20.6985 12.499 20.1141 13.1996C19.5345 13.8999 19.0873 15.0834 18.7821 16.7496L17.6683 23.1166L12.5468 23.3151L14.961 8.54494L19.5949 8.36539L19.1588 11.056C19.8561 9.96707 20.5741 9.16649 21.318 8.66839C22.057 8.16568 22.9046 7.89585 23.8702 7.85837C24.1637 7.84705 24.4722 7.85881 24.7867 7.89869C25.1058 7.93858 25.445 8.00593 25.8088 8.09621ZM35.0505 15.759C34.8651 15.7472 34.6752 15.7403 34.476 15.7386C34.2769 15.7368 33.9833 15.7434 33.5951 15.7585C32.2461 15.8108 31.2264 16.0446 30.5361 16.4553C29.8456 16.8661 29.5125 17.4431 29.5412 18.1863C29.5602 18.6738 29.7508 19.0693 30.1081 19.3589C30.4656 19.6531 30.9211 19.7872 31.4749 19.7657C32.4074 19.7296 33.2033 19.3479 33.867 18.6159C34.526 17.884 34.9204 16.9301 35.0505 15.759ZM39.9706 14.4021L39.2842 18.5861C39.1326 19.4453 39.0223 20.1464 38.9582 20.694C38.8894 21.2419 38.8486 21.7791 38.8307 22.2965L34.6038 22.4604L34.7972 20.2343C34.266 21.0845 33.5804 21.7415 32.7496 22.2003C31.9143 22.6641 30.9428 22.9151 29.8352 22.958C28.3536 23.0155 27.1596 22.6635 26.2389 21.9027C25.323 21.1419 24.8373 20.1083 24.7865 18.7972C24.7217 17.1263 25.4239 15.7954 26.893 14.8046C28.3621 13.8138 30.4645 13.263 33.1862 13.1576C33.5128 13.1449 33.8681 13.1406 34.2572 13.1493C34.6462 13.1579 35.0783 13.1743 35.5487 13.2035C35.5559 13.1463 35.563 13.0844 35.5652 13.018C35.5672 12.9468 35.5635 12.8521 35.5587 12.7291C35.5297 11.9812 35.2664 11.4225 34.7734 11.0577C34.2758 10.6929 33.5724 10.5259 32.6589 10.5612C31.8069 10.5942 30.9915 10.7159 30.2035 10.9314C29.4154 11.1468 28.6594 11.4558 27.9353 11.8536L28.3998 8.42711C29.1935 8.11199 29.985 7.8632 30.7795 7.69022C31.5739 7.51725 32.3853 7.41469 33.2183 7.38241C35.3483 7.29986 37.0305 7.64712 38.2601 8.42901C39.4898 9.21097 40.1302 10.3238 40.1863 11.7723C40.1992 12.1036 40.1858 12.4929 40.1462 12.94C40.1115 13.3869 40.0497 13.8728 39.9706 14.4021ZM55.4151 7.56509L54.3873 11.1366C53.8332 10.9069 53.291 10.7383 52.7654 10.6306C52.2351 10.5232 51.7213 10.4768 51.2243 10.496C49.8752 10.5483 48.8016 10.9786 48.0031 11.7822C47.2048 12.5858 46.8322 13.6148 46.881 14.8739C46.9235 15.972 47.2982 16.8345 47.9999 17.4472C48.7064 18.0646 49.6372 18.3509 50.7921 18.3061C51.2513 18.2883 51.7177 18.2133 52.1915 18.086C52.6652 17.9539 53.1556 17.7642 53.6625 17.5122L53.2158 21.3978C52.4474 21.6314 51.7197 21.8113 51.037 21.9325C50.3498 22.0588 49.6936 22.1316 49.0641 22.156C46.8536 22.2417 45.0736 21.6943 43.7194 20.5095C42.3603 19.3249 41.6433 17.703 41.5638 15.6487C41.4652 13.107 42.2329 11.0198 43.8624 9.39709C45.4918 7.7743 47.7004 6.90651 50.4836 6.79869C51.3167 6.76641 52.1435 6.81498 52.959 6.93975C53.7791 7.06444 54.5979 7.27444 55.4151 7.56509ZM58.67 0.195545L63.7158 0L61.4945 12.8949L66.3044 6.61221L72.046 6.38971L66.293 13.4153L70.2828 21.0778L64.7495 21.2921L61.3211 13.8024L60.035 21.4748L54.975 21.671L58.67 0.195545Z" fill="#FC6800"/>
<path d="M78.0643 9.82228L77.1756 15.1471L78.5625 15.0934C79.8263 15.0444 80.8008 14.7459 81.4809 14.1934C82.166 13.6454 82.4882 12.9075 82.4525 11.9845C82.4231 11.2272 82.1357 10.66 81.5948 10.2828C81.054 9.90548 80.2842 9.73623 79.2855 9.77495L78.0643 9.82228ZM73.449 6.44572L79.271 6.22016C82.0495 6.11249 84.1063 6.4642 85.4509 7.27954C86.7957 8.09496 87.501 9.41395 87.572 11.2457C87.6595 13.5036 86.9756 15.3078 85.5159 16.6632C84.0608 18.0137 82.008 18.7427 79.362 18.8453C79.0354 18.8579 78.6424 18.8685 78.1733 18.8724C77.704 18.8763 77.1636 18.8737 76.5519 18.8688L75.2682 26.1147L70.0378 26.3173L73.449 6.44572ZM91.2032 4.16493L96.2537 3.96924L92.5729 25.4441L87.5082 25.6403L91.2032 4.16493ZM98.1695 10.6075L103.282 10.4094L102.027 17.801C101.98 18.0541 101.952 18.3017 101.933 18.5443C101.914 18.7915 101.909 19.0287 101.917 19.2465C101.945 19.9612 102.132 20.4943 102.478 20.8555C102.828 21.2164 103.309 21.3874 103.929 21.3634C104.88 21.3265 105.678 20.8831 106.323 20.0333C106.964 19.1883 107.424 17.9807 107.695 16.4152L108.758 10.1972L113.875 9.99891L111.321 24.7176L106.744 24.8949L107.216 22.4021C106.424 23.3761 105.572 24.1203 104.662 24.6295C103.748 25.1438 102.787 25.4181 101.769 25.4574C100.245 25.5165 99.0494 25.1173 98.1868 24.2642C97.3194 23.4113 96.8542 22.1731 96.7916 20.5591C96.7722 20.0574 96.7967 19.4639 96.8598 18.7693C96.9279 18.0793 97.0309 17.3121 97.1739 16.4769L98.1695 10.6075ZM127.5 9.92126L126.513 13.1878C125.577 12.9064 124.816 12.7179 124.234 12.6219C123.652 12.5259 123.115 12.4852 122.627 12.5041C121.913 12.5318 121.363 12.6715 120.971 12.9286C120.578 13.1855 120.386 13.5153 120.402 13.9224C120.423 14.4478 121.052 14.9116 122.291 15.3092C122.799 15.4744 123.198 15.6107 123.492 15.7178C124.54 16.1132 125.317 16.5856 125.813 17.14C126.313 17.6943 126.577 18.3856 126.609 19.2092C126.67 20.8044 126.095 22.1161 124.879 23.1351C123.667 24.1538 122.01 24.7016 119.908 24.783C118.876 24.823 117.87 24.7814 116.898 24.6626C115.926 24.5439 114.975 24.3436 114.05 24.0667L114.969 20.5041C115.663 20.8091 116.354 21.0335 117.038 21.1729C117.716 21.3126 118.406 21.3712 119.102 21.3442C119.925 21.3123 120.551 21.1743 120.982 20.93C121.413 20.6858 121.619 20.3602 121.603 19.9437C121.579 19.333 120.986 18.8299 119.828 18.4291C119.641 18.37 119.497 18.3281 119.405 18.2938C117.958 17.7668 116.97 17.2125 116.435 16.6312C115.905 16.0497 115.619 15.2739 115.582 14.313C115.527 12.8977 116.117 11.7182 117.346 10.7793C118.58 9.83551 120.238 9.32564 122.316 9.24514C123.102 9.21476 123.924 9.25398 124.781 9.36764C125.639 9.4767 126.542 9.65976 127.5 9.92126Z" fill="#AD1582"/>
<path fill-rule="evenodd" clip-rule="evenodd" d="M16.1802 37.6366C16.361 37.6012 37.6251 26.3547 54.4078 33.1104C55.6076 33.5933 57.9476 34.6595 56.6292 35.3726L44.2666 42.0594C44.2666 42.0594 34.5964 35.6809 16.1802 37.6366Z" fill="#FC6800"/>
<path fill-rule="evenodd" clip-rule="evenodd" d="M34.5259 29.3322C34.7067 29.2968 55.9708 18.0503 72.7534 24.8059C73.9533 25.2889 76.2933 26.3551 74.9748 27.0682L62.6122 33.755C62.6122 33.755 52.9421 27.3765 34.5259 29.3322Z" fill="#AD1582"/>
</svg>
